<svg id="trmapi" data-name="trmapi" xmlns="http://www.w3.org/2000/svg" viewBox="0 0 180 180"><defs><style>.cls-1{fill:#0ca0e8;}.cls-2{fill:#f90;}</style></defs><title>Tasa Representativa del Mercado</title><path class="cls-1" d="M142.72,68.73a4.18,4.18,0,0,1,0,5.78,4.2,4.2,0,0,1-3.07,1.13,4.09,4.09,0,0,1-3-1.13,4.15,4.15,0,0,1,0-5.78,4.07,4.07,0,0,1,3-1.16A4.18,4.18,0,0,1,142.72,68.73Z"/><path class="cls-2" d="M142.72,84.57a4.18,4.18,0,0,1,0,5.78,4.21,4.21,0,0,1-3.07,1.14,4.1,4.1,0,0,1-3-1.14,4.15,4.15,0,0,1,0-5.78,4.07,4.07,0,0,1,3-1.16A4.18,4.18,0,0,1,142.72,84.57Z"/><path class="cls-1" d="M142.7,53a4.15,4.15,0,0,1,0,5.78,4.19,4.19,0,0,1-3.06,1.13,4.11,4.11,0,0,1-3-1.13,4.15,4.15,0,0,1,0-5.78,4.09,4.09,0,0,1,3-1.16A4.17,4.17,0,0,1,142.7,53Z"/><path class="cls-1" d="M44.48,68.76a20.43,20.43,0,0,0,5.88-1.07v7a21,21,0,0,1-8.58,1.57q-5.61,0-8.16-2.84t-2.56-8.5V48.36H26.59v-4l5.14-3.12,2.7-7.23h6v7.29H50v7H40.4V64.87a3.66,3.66,0,0,0,1.12,2.94A4.44,4.44,0,0,0,44.48,68.76Z"/><path class="cls-1" d="M71.07,40.7a15.42,15.42,0,0,1,3.16.27l-.71,8.76a10.87,10.87,0,0,0-2.76-.3,9.88,9.88,0,0,0-7,2.3,8.3,8.3,0,0,0-2.49,6.43V75.59H52V41.34H59l1.38,5.76h.46a12.78,12.78,0,0,1,4.3-4.64A10.59,10.59,0,0,1,71.07,40.7Z"/><path class="cls-1" d="M106.58,75.59H97.23v-20A10,10,0,0,0,96,50a4.36,4.36,0,0,0-3.9-1.86,5.65,5.65,0,0,0-5.21,2.64q-1.63,2.63-1.63,8.67V75.59H75.91V41.34h7.14l1.25,4.38h.52a9.52,9.52,0,0,1,4-3.69,12.87,12.87,0,0,1,6-1.33q7.69,0,10.42,5H106a9.25,9.25,0,0,1,4-3.71,13.69,13.69,0,0,1,6.06-1.31q5.82,0,8.8,3t3,9.58V75.59h-9.37v-20A10.11,10.11,0,0,0,117.32,50a4.37,4.37,0,0,0-3.91-1.86,5.83,5.83,0,0,0-5.13,2.45c-1.14,1.64-1.7,4.23-1.7,7.78Z"/><path class="cls-2" d="M87.24,127.68A3.6,3.6,0,0,0,89.29,129l-1.45,4.16c-3.32-.42-5.47-2-6.44-4.67A11.3,11.3,0,0,1,76.92,132a14.67,14.67,0,0,1-6,1.2,10.94,10.94,0,0,1-8-2.81,9.93,9.93,0,0,1-2.9-7.47,9.14,9.14,0,0,1,4.07-8q4.08-2.81,11.65-2.81h4.79v-2.46q0-3.34-2-4.86A9.15,9.15,0,0,0,73,103.29a27,27,0,0,0-8.78,1.7l-1.57-4.42a33,33,0,0,1,11.23-2.21q6.32,0,9.56,2.88a10.14,10.14,0,0,1,3.25,8v15.53A5.36,5.36,0,0,0,87.24,127.68Zm-10.16-.16a10,10,0,0,0,3.5-3.34V116.1H76.16q-5,0-7.35,1.7a5.84,5.84,0,0,0-2.3,5A6,6,0,0,0,68,127.21a6.18,6.18,0,0,0,4.55,1.51A9,9,0,0,0,77.08,127.52Z"/><path class="cls-2" d="M122,115.78q0,7.83-3.31,12.63a10.87,10.87,0,0,1-9.5,4.79,11.17,11.17,0,0,1-8.71-3.72v15.71L94.4,146V99.19h5.24l.44,4.48a12.66,12.66,0,0,1,4.39-4,11.51,11.51,0,0,1,5.46-1.36Q122,98.36,122,115.78Zm-18-11.2a14.1,14.1,0,0,0-3.51,3.69v16.1a9.75,9.75,0,0,0,3.16,2.93,8,8,0,0,0,4,1,6.58,6.58,0,0,0,5.9-3.06c1.32-2,2-5.2,2-9.5s-.59-7.46-1.77-9.53a5.84,5.84,0,0,0-5.43-3.09A7.39,7.39,0,0,0,104,104.58Z"/><polygon class="cls-2" points="144.14 99.19 144.14 127.84 153.41 127.84 153.41 132.45 127.98 132.45 127.98 127.84 138.08 127.84 138.08 103.79 128.29 103.79 128.29 99.19 144.14 99.19"/></svg>